<?xml version="1.0" encoding="utf-8"?>
<!-- Generator: Adobe Illustrator 23.1.0, SVG Export Plug-In . SVG Version: 6.00 Build 0)  -->
<svg version="1.1" id="Layer_1" xmlns="http://www.w3.org/2000/svg" xmlns:xlink="http://www.w3.org/1999/xlink" x="0px" y="0px"
	 viewBox="0 0 1080 1080" style="enable-background:new 0 0 1080 1080;" xml:space="preserve">
<style type="text/css">
	.st0{fill:url(#SVGID_1_);}
	.st1{fill:none;}
	.st2{fill:#FFFFFF;}
</style>
<g>
	<linearGradient id="SVGID_1_" gradientUnits="userSpaceOnUse" x1="754.1663" y1="151.7099" x2="317.6429" y2="918.0244">
		<stop  offset="0" style="stop-color:#E00000"/>
		<stop  offset="1" style="stop-color:#880000"/>
	</linearGradient>
	<path class="st0" d="M253.2,820.2c22,18.4,14,92.4,31.8,78.6c17.8-13.7,22.8-8.1,26.7,2.8c4.8,13.4,3.8,29.2,33.5,31.5
		c37.4-0.7,30.4,19,58.6,15.7s15.2-24.9,40.9-6.9c15,10.5,18.7-1.9,50.4,7.8c37.7,11.5,27.1-20.9,73.9-12.7
		c70.9,12.4,50-14.7,81.1-0.5c12.8,5.8,12.4,9.3,42.7,9.3c30.4,0,25.4-15.3,34.9-18.4c32.9-10.7,37.9,30.5,64-55.9
		c9.7-32,31.2,14.1,47.8-61.1c12.8-58.5,22.9,7.5,49.6-93.7c15.1-57.1,36.4,7,53.2-87.4c9.1-51.4,43.2-54,29.8-119
		c-8.4-40.9,4.3-47.4-49.9-114.3c-40.4-49.8-45.4-33.5-54.1-90.5c-12.2-79.5-30.8-66-58.8-96.4s-15.5-65.8-77.1-71.3
		s-112.5,16.1-235.1-1.6c-115-16.6-124.5-7.4-170.3,19.6c-20.9,12.3-42.8,15.3-74.2,59.5c-37.1,52.2-23.9,74.6-52.3,112
		c-35,46.1-64.7,54.6-68.6,110c-4.1,58.2-28,49.4-26.5,87.9c1.6,41.2,3.4,33.3,12.6,67.4c29.7,109.8,47.8,51.5,51.5,85
		c11.6,104.9,22.6,36.6,52.7,93.9C243.6,812.9,234.5,804.4,253.2,820.2z"/>
	<polygon class="st1" points="485.1,719.7 485.1,719.7 485.1,719.7 	"/>
	<path class="st2" d="M863.4,623.9l-33.1,57.3c-11.5,19.9-32.7,32.1-55.6,32.1H435.5l0.1,0.1c15.2,26.2,43.1,42.3,73.4,42.3h278.3
		l-46.9,81.2c-7.3,12.7-20.9,20.6-35.6,20.6H374.6c-14.7,0-28.3-7.8-35.6-20.6L173.9,551c-3.7-6.4-5.5-13.5-5.5-20.6
		c0-7.1,1.8-14.2,5.5-20.6c10.9-18.9,31-30.5,52.8-30.5h73.7l59,102.1c15.1,26.2,43.1,42.4,73.4,42.4H863.4z"/>
	<path class="st2" d="M911,530.5c0,7.1-1.8,14.2-5.5,20.6c-10.9,18.9-31,30.5-52.8,30.5h-86.3l-59.1-102.1
		c-15.2-26.3-43.3-42.5-73.6-42.5H216l123-213c7.3-12.7,20.9-20.6,35.6-20.6h330.1c14.7,0,28.3,7.8,35.6,20.6l46.9,81.3H515.4
		c-15.2,0-29.8,4.1-42.5,11.4c-12.7,7.3-23.5,18-31.1,31.1h330c24.7,0,47.6,13.2,60,34.6l73.7,127.6
		C909.2,516.3,911,523.4,911,530.5z"/>
	<polygon class="st2" points="766.4,581.5 359.4,581.5 300.4,479.4 707.3,479.4 	"/>
</g>
</svg>
