<?xml version="1.0" encoding="UTF-8" standalone="no"?>
<!DOCTYPE svg PUBLIC "-//W3C//DTD SVG 1.1//EN" "http://www.w3.org/Graphics/SVG/1.1/DTD/svg11.dtd">
<!-- Created with Vectornator (http://vectornator.io/) -->
<svg height="1080.0pt" stroke-miterlimit="10" style="fill-rule:nonzero;clip-rule:evenodd;stroke-linecap:round;stroke-linejoin:round;" version="1.1" viewBox="0 0 1080 1080" width="1080.0pt" xml:space="preserve" xmlns="http://www.w3.org/2000/svg" xmlns:xlink="http://www.w3.org/1999/xlink">
<defs>
<radialGradient cx="319.085" cy="923.53" gradientTransform="matrix(1.09469 0 0 1.09469 -52.488 -42.053)" gradientUnits="userSpaceOnUse" id="RadialGradient" r="880.628">
<stop offset="0.178971" stop-color="#c80000"/>
<stop offset="1" stop-color="#ff5959"/>
</radialGradient>
<filter color-interpolation-filters="sRGB" filterUnits="userSpaceOnUse" height="632.948" id="Filter" width="979.745" x="23.4833" y="416.949">
<feDropShadow dx="2.68121e-15" dy="43.7875" flood-color="#000000" flood-opacity="0.2" in="SourceGraphic" result="Shadow" stdDeviation="43.7875"/>
</filter>
<filter color-interpolation-filters="sRGB" filterUnits="userSpaceOnUse" height="632.948" id="Filter_2" width="979.745" x="73.401" y="49.2439">
<feDropShadow dx="1.34061e-15" dy="-21.8937" flood-color="#e00000" flood-opacity="1" in="SourceGraphic" result="Shadow" stdDeviation="43.7875"/>
</filter>
</defs>
<g id="Untitled">
<g opacity="1">
<path d="M224.687 855.81C248.77 875.952 240.012 956.959 259.498 941.852C278.983 926.855 284.457 932.985 288.726 944.917C293.981 959.586 292.886 976.882 325.398 979.4C366.339 978.634 358.677 1000.2 389.547 996.586C420.417 992.974 406.186 969.329 434.319 989.033C450.74 1000.53 454.79 986.953 489.492 997.572C530.761 1010.16 519.158 974.693 570.389 983.669C648.002 997.243 625.124 967.577 659.168 983.122C673.18 989.471 672.742 993.302 705.911 993.302C739.19 993.302 733.717 976.554 744.116 973.16C780.131 961.447 785.605 1006.55 814.176 911.967C824.794 876.937 848.33 927.402 866.502 845.082C880.514 781.042 891.57 853.292 920.799 742.509C937.328 680.003 960.645 750.172 979.036 646.834C988.998 590.567 1026.33 587.721 1011.66 516.566C1002.46 471.793 1016.36 464.678 957.033 391.443C912.807 336.928 907.334 354.771 897.81 292.374C887.792 227.091 873.831 219.096 854.543 205.129C848.117 200.476 841.101 195.161 833.443 186.846C802.791 153.568 816.475 114.816 749.042 108.795C681.609 102.774 625.89 126.419 491.681 107.043C365.792 88.8716 355.393 98.9427 305.256 128.499C282.377 141.964 258.403 145.248 224.03 193.633C183.417 250.776 197.867 275.297 166.778 316.238C128.464 366.703 95.9516 376.008 91.6823 436.654C87.1941 500.365 61.0311 490.731 62.6731 532.877C64.4246 577.978 66.395 569.33 76.4662 606.659C108.978 726.855 128.792 663.035 132.843 699.707C145.541 814.54 157.583 739.773 190.533 802.498C214.178 847.818 204.216 838.514 224.687 855.81Z" fill="url(#RadialGradient)" fill-rule="nonzero" opacity="1" stroke="#a90000" stroke-linecap="butt" stroke-linejoin="miter" stroke-width="30"/>
<path d="" fill="#000000" fill-rule="nonzero" opacity="1" stroke="none"/>
<path d="M893.76 640.922L857.526 703.648C844.937 725.432 821.729 738.788 796.661 738.788L425.343 738.788L425.453 738.897C442.092 767.578 472.634 785.202 505.803 785.202L810.454 785.202L774.477 847.491L759.113 874.091C751.122 887.993 736.234 896.641 720.142 896.641L358.677 896.641C342.585 896.641 327.697 888.103 319.706 874.091L138.973 561.12C134.922 554.114 132.952 546.341 132.952 538.569C132.952 530.797 134.922 523.025 138.973 516.019C150.905 495.329 172.908 482.631 196.772 482.631L277.451 482.631L342.037 594.398C358.567 623.079 389.218 640.813 422.387 640.813L893.76 640.813L893.76 640.922Z" fill="#ffffff" fill-rule="nonzero" filter="url(#Filter)" stroke="none"/>
<path d="M943.678 538.679C943.678 546.451 941.707 554.223 937.657 561.229C925.725 581.919 903.721 594.617 879.857 594.617L785.386 594.617L720.69 482.85C704.05 454.059 673.29 436.325 640.121 436.325L182.87 436.325L317.516 203.157C325.508 189.254 340.395 180.606 356.487 180.606L717.844 180.606C733.935 180.606 748.823 189.145 756.814 203.157L808.155 292.155L510.619 292.155C493.98 292.155 477.998 296.643 464.095 304.635C450.192 312.626 438.37 324.339 430.05 338.679L791.297 338.679C818.336 338.679 843.404 353.129 856.978 376.555L890.141 433.972L937.657 516.238C941.707 523.134 943.678 530.906 943.678 538.679Z" fill="#ffffff" fill-rule="nonzero" filter="url(#Filter_2)" stroke="none"/>
<path d="M786.48 594.508L340.943 594.508L276.356 482.74L721.784 482.74L786.48 594.508Z" fill="#ffffff" fill-rule="nonzero" opacity="1" stroke="none"/>
</g>
</g>
<g id="Layer-1"/>
</svg>
